<svg width="804" height="804" viewBox="0 0 804 804" fill="none" xmlns="http://www.w3.org/2000/svg">
<g clip-path="url(#clip0)">
<path d="M795.939 183.485C792.453 182.687 788.967 183.485 785.916 185.478C774.586 194.25 761.512 201.427 747.131 206.212C733.622 210.997 718.805 213.389 703.117 213.389C667.819 213.389 635.571 200.231 612.474 179.099C589.377 157.966 574.997 128.461 574.997 96.1643C574.997 82.6077 577.611 69.4499 581.969 57.4882C586.763 44.729 593.735 33.166 602.887 23.198C606.809 18.812 605.937 12.4324 601.144 8.84391C598.093 6.85029 594.607 6.05285 591.121 6.85029C554.079 16.0209 521.831 36.3558 498.734 63.469C476.509 90.1835 463 123.277 463 159.561C463 203.022 521.831 177.504 553.207 206.212C584.584 234.92 647.5 302.5 663 302.5C703.092 302.5 712.704 304.697 742.338 283.564C772.407 262.033 794.196 231.332 803.347 196.244C805.526 190.263 802.04 184.681 795.939 183.485ZM729.264 266.818C703.989 285.159 676.299 283.564 641 283.564C636 266.818 647.5 283.578 553.207 206.212C526.189 181.491 486.532 197.041 486.532 159.163C486.532 127.663 497.863 98.9554 517.473 75.8294C530.982 59.8805 547.978 46.7226 567.588 37.552C565.409 41.9379 563.23 46.3239 561.487 51.1086C555.822 65.4626 553.207 80.6141 553.207 96.563C553.207 134.442 570.203 169.131 597.222 193.852C624.24 218.572 662.153 234.123 703.553 234.123C721.856 234.123 739.287 231.332 755.411 225.749C761.076 223.756 766.742 221.762 771.971 219.37C761.512 237.711 747.131 254.059 729.264 266.818Z" fill="#F2F4F7"/>
</g>
<path d="M691.578 387.203C683.912 261.927 579.558 162.356 452.387 162.356C406.587 162.356 362.061 175.324 323.626 199.858C290.324 221.116 262.875 250.138 243.571 284.354C224.338 277.694 204.246 274.326 183.659 274.326C82.388 274.327 0 356.715 0 457.985C0 559.254 82.388 641.644 183.657 641.644H503.034C511.707 641.644 518.737 634.614 518.737 625.941C518.737 617.268 511.707 610.238 503.034 610.238H183.657C99.707 610.238 31.4062 541.937 31.4062 457.985C31.4062 374.033 99.707 305.732 183.657 305.732C204.813 305.732 225.33 310.019 244.639 318.474C244.641 318.474 244.642 318.475 244.644 318.475C283.107 335.34 313.182 367.689 327.159 407.229C329.437 413.675 335.496 417.703 341.964 417.703C343.701 417.703 345.467 417.413 347.198 416.8C355.374 413.911 359.66 404.938 356.77 396.761C341.793 354.39 311.487 318.879 272.388 297.216C309.639 233.023 377.264 193.759 452.387 193.759C562.28 193.759 652.553 279.332 660.101 387.34C641.234 389.739 623.152 396.295 607.081 406.687C599.798 411.397 597.713 421.117 602.422 428.4C605.428 433.047 610.472 435.578 615.622 435.578C618.543 435.578 621.5 434.763 624.135 433.059C639.675 423.011 657.721 417.7 676.326 417.7C729.409 417.703 772.594 460.888 772.594 513.97C772.594 567.052 729.409 610.238 676.327 610.238H628.659C619.986 610.238 612.956 617.268 612.956 625.941C612.956 634.614 619.986 641.644 628.659 641.644H676.326C746.724 641.644 803.998 584.37 803.998 513.97C804 448.731 754.815 394.764 691.578 387.203Z" fill="url(#paint0_linear)"/>
<path d="M565.846 641.644C574.519 641.644 581.549 634.613 581.549 625.941C581.549 617.268 574.519 610.238 565.846 610.238C557.174 610.238 550.143 617.268 550.143 625.941C550.143 634.613 557.174 641.644 565.846 641.644Z" fill="url(#paint1_linear)"/>
<defs>
<linearGradient id="paint0_linear" x1="401.999" y1="162.356" x2="401.999" y2="641.644" gradientUnits="userSpaceOnUse">
<stop stop-color="#ACD3F7"/>
<stop offset="1" stop-color="#D9E0F4"/>
</linearGradient>
<linearGradient id="paint1_linear" x1="565.846" y1="610.238" x2="565.846" y2="641.644" gradientUnits="userSpaceOnUse">
<stop stop-color="#ACD3F7"/>
<stop offset="1" stop-color="#D9E0F4"/>
</linearGradient>
<clipPath id="clip0">
<rect width="341" height="312" fill="white" transform="translate(463 6)"/>
</clipPath>
</defs>
</svg>
