<svg width="533" height="570" viewBox="0 0 533 570" fill="none" xmlns="http://www.w3.org/2000/svg">
<g clip-path="url(#clip0)">
<path d="M212.796 146.699C202.603 132.688 193.43 120.278 186.295 109.87C185.956 109.069 185.276 108.669 184.936 108.269C181.199 104.666 175.763 105.467 172.705 109.87C165.571 120.278 156.398 132.688 146.205 146.699C101.359 207.947 39.1848 292.814 39.1848 363.67C39.1848 409.306 54.8131 450.538 80.2942 480.562C105.775 510.185 140.769 529 179.5 529C218.232 529 253.226 510.586 278.707 480.562C304.188 450.538 319.816 409.306 319.816 363.67C319.816 292.814 257.642 207.947 212.796 146.699ZM266.476 465.75C244.052 492.171 213.475 508.584 179.5 508.584C145.526 508.584 114.948 492.171 92.5251 466.151C70.4415 440.13 56.5119 403.701 56.5119 363.67C56.5119 300.42 116.307 218.756 159.455 159.909C166.59 149.902 173.385 140.694 179.5 131.887C185.616 140.694 192.411 149.902 199.546 159.509C242.693 218.355 302.489 299.619 302.489 363.27C302.489 403.301 288.559 439.329 266.476 465.75Z" fill="url(#paint0_linear)"/>
</g>
<g clip-path="url(#clip1)">
<path d="M379.404 22.6105C373.158 14.8266 367.537 7.93233 363.164 2.15C362.956 1.7052 362.54 1.4828 362.332 1.26041C360.041 -0.741169 356.71 -0.296374 354.836 2.15C350.464 7.93233 344.843 14.8266 338.597 22.6105C311.114 56.6373 273.013 103.786 273.013 143.15C273.013 168.503 282.59 191.41 298.205 208.09C313.82 224.547 335.265 235 359 235C382.735 235 404.18 224.77 419.795 208.09C435.41 191.41 444.988 168.503 444.988 143.15C444.988 103.786 406.887 56.6373 379.404 22.6105ZM412.3 199.861C398.559 214.539 379.82 223.658 359 223.658C338.18 223.658 319.442 214.539 305.701 200.084C292.168 185.628 283.631 165.39 283.631 143.15C283.631 108.011 320.275 62.6421 346.716 29.9497C351.089 24.3897 355.253 19.2746 359 14.3818C362.748 19.2746 366.912 24.3897 371.284 29.7273C397.726 62.4197 434.369 107.566 434.369 142.927C434.369 165.167 425.833 185.183 412.3 199.861Z" fill="url(#paint1_linear)"/>
</g>
<g clip-path="url(#clip2)">
<path d="M444.219 359.418C438.029 351.7 432.459 344.865 428.126 339.132C427.92 338.691 427.508 338.47 427.301 338.25C425.032 336.265 421.731 336.706 419.874 339.132C415.542 344.865 409.971 351.7 403.782 359.418C376.549 393.155 338.795 439.902 338.795 478.932C338.795 504.069 348.285 526.781 363.758 543.319C379.231 559.636 400.481 570 424 570C447.52 570 468.769 559.857 484.243 543.319C499.716 526.781 509.206 504.069 509.206 478.932C509.206 439.902 471.451 393.155 444.219 359.418ZM476.815 535.16C463.199 549.714 444.631 558.754 424 558.754C403.369 558.754 384.802 549.714 371.185 535.381C357.775 521.048 349.316 500.982 349.316 478.932C349.316 444.092 385.627 399.109 411.828 366.695C416.161 361.182 420.287 356.111 424 351.259C427.714 356.111 431.84 361.182 436.173 366.474C462.374 398.888 498.684 443.651 498.684 478.711C498.684 500.762 490.225 520.607 476.815 535.16Z" fill="url(#paint2_linear)"/>
</g>
<defs>
<linearGradient id="paint0_linear" x1="179.5" y1="106" x2="179.5" y2="529" gradientUnits="userSpaceOnUse">
<stop stop-color="#89B5FA"/>
<stop offset="1" stop-color="#459CEA"/>
</linearGradient>
<linearGradient id="paint1_linear" x1="359" y1="-0.00012207" x2="359" y2="235" gradientUnits="userSpaceOnUse">
<stop stop-color="#89B5FA"/>
<stop offset="1" stop-color="#459CEA"/>
</linearGradient>
<linearGradient id="paint2_linear" x1="424" y1="337" x2="424" y2="570" gradientUnits="userSpaceOnUse">
<stop stop-color="#89B5FA"/>
<stop offset="1" stop-color="#459CEA"/>
</linearGradient>
<clipPath id="clip0">
<rect width="359" height="423" fill="white" transform="translate(0 106)"/>
</clipPath>
<clipPath id="clip1">
<rect width="220" height="235" fill="white" transform="translate(249)"/>
</clipPath>
<clipPath id="clip2">
<rect width="218" height="233" fill="white" transform="translate(315 337)"/>
</clipPath>
</defs>
</svg>
