<svg width="750" height="750" viewBox="0 0 750 750" fill="none" xmlns="http://www.w3.org/2000/svg">
<path d="M98.3334 183.713L109.314 180.275L108.84 168.779C105.994 99.8532 156.237 39.4847 223.884 28.5206L223.904 28.5174L223.924 28.5141C231.103 27.3308 238.504 26.7217 246.094 26.7217C303.265 26.7217 352.317 61.6666 372.984 111.416L376.584 120.085L385.955 120.636C409.82 122.041 431.022 133.329 445.537 150.534L455.243 162.04L466.715 152.293C481.575 139.667 498.951 133.308 516.338 132.328L516.338 132.328C553.805 130.214 590.96 152.999 602.673 192.9L606.361 205.466L619.311 203.506C673.988 195.228 723.281 237.67 723.281 292.972C723.281 342.93 682.77 383.44 632.812 383.44H530H150.5H128.906C72.4737 383.44 26.7188 337.685 26.7188 281.253C26.7188 235.496 56.8212 196.707 98.3334 183.713Z" stroke="url(#paint0_linear)" stroke-width="30"/>
<path d="M318.919 323H414L379.5 416.917H437L333.5 645L345 484H276L318.919 323Z" fill="url(#paint1_linear)"/>
<defs>
<linearGradient id="paint0_linear" x1="375" y1="11.7217" x2="375" y2="398.44" gradientUnits="userSpaceOnUse">
<stop stop-color="#A5AFE7"/>
<stop offset="1" stop-color="#CFD6F1"/>
</linearGradient>
<linearGradient id="paint1_linear" x1="356.5" y1="323" x2="356.5" y2="645" gradientUnits="userSpaceOnUse">
<stop stop-color="#FDB933"/>
<stop offset="1" stop-color="#FAD143"/>
</linearGradient>
</defs>
</svg>
