<svg width="653" height="653" viewBox="0 0 653 653" fill="none" xmlns="http://www.w3.org/2000/svg">
<path d="M635.426 31.4415C567.18 9.08776 470.171 -2.23389 369.279 0.376837C274.571 2.82814 185.271 16.9301 117.826 40.0836C20.1154 73.6289 -0.179909 115.263 0.00119647 144.28C0.0802707 156.918 4.30947 175.988 24.0079 195.065C47.1218 217.448 87.5631 235.716 139.665 248.653C108.747 262.416 93.1022 280.374 93.1022 302.264C93.1022 330.925 119.887 352.851 172.71 367.434C214.124 378.867 268.739 385.163 326.496 385.163C397.992 385.163 441.555 401.171 454.059 410.671C443.622 418.603 411.521 431.06 359.615 434.962C353.883 435.08 348.206 435.391 342.618 435.89C337.407 436.072 332.045 436.179 326.496 436.179C251.951 436.179 207.275 419.213 196.628 408.518C186.687 398.535 170.538 398.501 160.554 408.441C150.571 418.381 150.537 434.531 160.476 444.514C178.061 462.174 209.392 473.452 244.056 479.952C237.46 490.1 235.943 499.688 235.943 506.324C235.943 519.491 241.873 544.142 281.591 561.304C297.88 568.343 317.742 573.105 339.152 575.223C337.879 579.717 337.211 584.4 337.211 589.226C337.211 624.985 373.96 652.996 420.875 652.996C434.963 652.996 446.383 641.576 446.383 627.488C446.383 613.4 434.963 601.98 420.875 601.98C399.108 601.98 388.225 591.662 388.225 589.226C388.225 586.79 399.107 576.472 420.875 576.472C434.963 576.472 446.383 565.052 446.383 550.964C446.383 536.876 434.963 525.456 420.875 525.456H364.758C321.155 525.456 294.801 513.112 288.019 506.227C293.651 500.247 313.569 489.948 345.489 486.838C351.005 486.631 356.498 486.335 361.951 485.946C362.882 485.933 363.811 485.919 364.759 485.919C366.714 485.919 368.609 485.68 370.437 485.263C443.986 478.659 507.6 454.878 507.6 410.673C507.6 393.085 497.522 378.734 480.765 367.408C504.196 360.902 524.316 352.387 538.256 341.498C549.358 332.827 551.328 316.796 542.656 305.694C533.983 294.592 517.955 292.621 506.852 301.292C485.948 317.62 417.285 334.149 326.496 334.149C279.326 334.149 233.757 329.579 198.185 321.279C169.168 314.509 154.033 306.988 147.356 302.264C154.033 297.54 169.169 290.019 198.185 283.25C233.759 274.949 279.326 270.38 326.496 270.38C327.043 270.38 327.578 270.331 328.115 270.298C332.791 270.357 337.493 270.387 342.219 270.387C352.026 270.387 361.953 270.258 371.957 270C373.363 269.963 374.729 269.784 376.067 269.53C426.997 267.808 475.068 259.989 511.706 247.411C571.516 226.877 583.923 199.168 583.802 179.532C583.742 170.417 580.809 156.779 567.17 143.574C530.633 108.205 440.859 97.5833 369.021 99.4479C325.622 100.57 275.176 108.006 234.076 119.336C220.496 123.081 212.521 137.126 216.264 150.706C220.007 164.286 234.051 172.26 247.635 168.517C261.623 164.661 311.811 151.961 370.341 150.446C452.521 148.323 514.487 164.032 531.43 179.982C527.565 184.001 517.083 191.628 495.142 199.162C462.523 210.358 418.66 217.279 371.63 218.646C370.345 218.683 369.098 218.845 367.87 219.064C210.327 222.75 93.6021 191.446 59.4969 158.419C55.6439 154.689 51.0462 149.154 51.0155 143.965C50.9569 134.645 68.3086 111.023 134.389 88.3367C197.055 66.8234 280.942 53.6971 370.598 51.3759C465.873 48.9118 556.624 59.3139 619.544 79.923C632.933 84.309 647.34 77.01 651.725 63.6222C656.111 50.2331 648.814 35.825 635.426 31.4415Z" fill="url(#paint0_linear)"/>
<defs>
<linearGradient id="paint0_linear" x1="326.5" y1="0.00750732" x2="326.5" y2="652.996" gradientUnits="userSpaceOnUse">
<stop stop-color="#CCD2EC"/>
<stop offset="1" stop-color="#7A81AA"/>
</linearGradient>
</defs>
</svg>
